<?xml version="1.0" encoding="UTF-8"?>
<svg id="Capa_1" data-name="Capa 1" xmlns="http://www.w3.org/2000/svg" xmlns:xlink="http://www.w3.org/1999/xlink" viewBox="0 0 16 16">
  <defs>
    <style>
      .cls-1 {
        fill: url(#Nueva_muestra_de_degradado_2);
        stroke: #000;
        stroke-miterlimit: 10;
        stroke-width: .75px;
      }
    </style>
    <linearGradient id="Nueva_muestra_de_degradado_2" data-name="Nueva muestra de degradado 2" x1="10.07" y1="15.23" x2="7.34" y2="-.24" gradientUnits="userSpaceOnUse">
      <stop offset=".03" stop-color="#000"/>
      <stop offset=".23" stop-color="#ff6315"/>
      <stop offset=".26" stop-color="#ff7227"/>
      <stop offset=".39" stop-color="#ffb979"/>
      <stop offset=".48" stop-color="#ffe5ad"/>
      <stop offset=".52" stop-color="#fff7c2"/>
      <stop offset=".55" stop-color="#f9dfa7"/>
      <stop offset=".61" stop-color="#edb474"/>
      <stop offset=".66" stop-color="#e4904a"/>
      <stop offset=".71" stop-color="#dd742a"/>
      <stop offset=".76" stop-color="#d86012"/>
      <stop offset=".81" stop-color="#d55404"/>
      <stop offset=".85" stop-color="#d45000"/>
      <stop offset=".87" stop-color="#b84500"/>
      <stop offset=".9" stop-color="#772d00"/>
      <stop offset=".94" stop-color="#431900"/>
      <stop offset=".96" stop-color="#1e0b00"/>
      <stop offset=".99" stop-color="#080300"/>
      <stop offset="1" stop-color="#000"/>
    </linearGradient>
  </defs>
  <path class="cls-1" d="m7.51.22c0,.4-.3.7.26.9s1.39.3,2.5.3h3.58v.18l-.13.08-.13.08v.18h.26l.64-.09.64-.09.12.09.12.09v.52c0,.41-.23.77-.7,1.08s-1.17.58-2.11.8l-1.4-.4-.39-.09-.74,1.45-.3,1.09-.12-.09-.12-.09-.13.6-.13.6c.26,0,.45.03.58.09s.19.15.19.26h3.07l1.03.6,1.03.6v.16c0,.08-.47.19-1.41.33s-2.35.32-4.22.53c0,.11-.15.2-.45.26s-.75.09-1.34.09l.12.09.12.09v.18l-.12.77-.12.77v.16h.25c1.82-.16,3.28-.31,4.39-.45s1.87-.28,2.27-.41l.25.26.25.26-.13.6-.13.6-.51-.08-.51-.08c-.22,0-.42.1-.6.3s-.32.5-.44.9l-.63.17-.63.17.12.09.12.09v.16l-3.71.43-3.71.43c-.77-.61-1.34-1.14-1.72-1.56s-.57-.76-.57-1l.51-1.11.51-1.11v-.18c-.25,0-.44-.03-.57-.08s-.19-.14-.19-.26v-.68c.36-.48.69-1.07.99-1.78s.56-1.55.8-2.5c.43-.51.75-.98.96-1.4s.32-.82.32-1.16c-.46,0-1.41.09-1.88-.2S1.11,1.51.63.94l2.34.13.55.24,1.45-.72,1.19.66v-.16c.07-.29.16-.5.29-.64s.86-.21,1.05-.21Z"/>
</svg>