<?xml version="1.0" encoding="UTF-8"?>
<svg id="Capa_1" data-name="Capa 1" xmlns="http://www.w3.org/2000/svg" xmlns:xlink="http://www.w3.org/1999/xlink" viewBox="0 0 140.67 43.75">
  <defs>
    <style>
      .cls-1 {
        fill: url(#Nueva_muestra_de_degradado_2-3);
      }

      .cls-1, .cls-2, .cls-3, .cls-4, .cls-5, .cls-6, .cls-7 {
        stroke: #000;
        stroke-miterlimit: 10;
      }

      .cls-1, .cls-2, .cls-3, .cls-4, .cls-5, .cls-7 {
        stroke-width: .5px;
      }

      .cls-2 {
        fill: url(#Nueva_muestra_de_degradado_2-6);
      }

      .cls-3 {
        fill: url(#Nueva_muestra_de_degradado_2-2);
      }

      .cls-4 {
        fill: url(#Nueva_muestra_de_degradado_2-7);
      }

      .cls-5 {
        fill: url(#Nueva_muestra_de_degradado_2-4);
      }

      .cls-6 {
        fill: url(#Nueva_muestra_de_degradado_2);
        stroke-width: .75px;
      }

      .cls-7 {
        fill: url(#Nueva_muestra_de_degradado_2-5);
      }
    </style>
    <linearGradient id="Nueva_muestra_de_degradado_2" data-name="Nueva muestra de degradado 2" x1="26.92" y1="41.83" x2="19.39" y2="-.89" gradientUnits="userSpaceOnUse">
      <stop offset=".03" stop-color="#000"/>
      <stop offset=".23" stop-color="#ff6315"/>
      <stop offset=".26" stop-color="#ff7227"/>
      <stop offset=".39" stop-color="#ffb979"/>
      <stop offset=".48" stop-color="#ffe5ad"/>
      <stop offset=".52" stop-color="#fff7c2"/>
      <stop offset=".55" stop-color="#f9dfa7"/>
      <stop offset=".61" stop-color="#edb474"/>
      <stop offset=".66" stop-color="#e4904a"/>
      <stop offset=".71" stop-color="#dd742a"/>
      <stop offset=".76" stop-color="#d86012"/>
      <stop offset=".81" stop-color="#d55404"/>
      <stop offset=".85" stop-color="#d45000"/>
      <stop offset=".87" stop-color="#b84500"/>
      <stop offset=".9" stop-color="#772d00"/>
      <stop offset=".94" stop-color="#431900"/>
      <stop offset=".96" stop-color="#1e0b00"/>
      <stop offset=".99" stop-color="#080300"/>
      <stop offset="1" stop-color="#000"/>
    </linearGradient>
    <linearGradient id="Nueva_muestra_de_degradado_2-2" data-name="Nueva muestra de degradado 2" x1="59.16" y1="33.45" x2="53.06" y2="12.16" xlink:href="#Nueva_muestra_de_degradado_2"/>
    <linearGradient id="Nueva_muestra_de_degradado_2-3" data-name="Nueva muestra de degradado 2" x1="74.43" y1="33.13" x2="68.02" y2="10.78" xlink:href="#Nueva_muestra_de_degradado_2"/>
    <linearGradient id="Nueva_muestra_de_degradado_2-4" data-name="Nueva muestra de degradado 2" x1="88.7" y1="34.38" x2="82.05" y2="11.21" xlink:href="#Nueva_muestra_de_degradado_2"/>
    <linearGradient id="Nueva_muestra_de_degradado_2-5" data-name="Nueva muestra de degradado 2" x1="106" y1="33.88" x2="99.56" y2="11.42" xlink:href="#Nueva_muestra_de_degradado_2"/>
    <linearGradient id="Nueva_muestra_de_degradado_2-6" data-name="Nueva muestra de degradado 2" x1="121.79" y1="34.81" x2="115.29" y2="12.14" xlink:href="#Nueva_muestra_de_degradado_2"/>
    <linearGradient id="Nueva_muestra_de_degradado_2-7" data-name="Nueva muestra de degradado 2" x1="134.97" y1="33.75" x2="128.7" y2="11.9" xlink:href="#Nueva_muestra_de_degradado_2"/>
  </defs>
  <path class="cls-6" d="m19.85.38c0,1.1-.82,1.93.72,2.48s3.83.83,6.9.83h9.88v.48l-.36.23-.36.23v.48h.72l1.77-.24,1.77-.24.34.24.34.24v1.42c0,1.12-.65,2.11-1.94,2.98s-3.23,1.6-5.81,2.21l-3.87-1.1-1.07-.24-2.03,4-.83,3.01-.34-.24-.34-.24-.36,1.65-.36,1.65c.71,0,1.24.08,1.6.24s.53.4.53.73h8.48l2.83,1.65,2.83,1.65v.45c0,.21-1.3.52-3.89.91s-6.48.88-11.66,1.45c0,.31-.41.55-1.24.71s-2.06.24-3.71.24l.34.24.34.24v.49l-.34,2.12-.34,2.12v.45h.68c5.02-.43,9.06-.85,12.13-1.24s5.16-.77,6.28-1.12l.7.71.7.71-.36,1.65-.36,1.65-1.41-.23-1.41-.23c-.62,0-1.17.28-1.64.83s-.88,1.38-1.21,2.48l-1.75.47-1.75.47.34.24.34.24v.46l-10.24,1.18-10.24,1.18c-2.12-1.7-3.7-3.14-4.76-4.32s-1.59-2.11-1.59-2.77l1.41-3.06,1.41-3.06v-.49c-.7,0-1.22-.08-1.56-.23s-.52-.39-.52-.7v-1.88c1-1.31,1.91-2.96,2.73-4.93s1.56-4.27,2.21-6.9c1.18-1.4,2.06-2.7,2.65-3.88s.88-2.25.88-3.21c-1.27,0-3.9.24-5.2-.55S2.18,3.95.85,2.38l6.47.35,1.53.65,4-2,3.29,1.82v-.45c.18-.79.45-1.38.8-1.77s2.38-.59,2.91-.59Z"/>
  <g>
    <path class="cls-3" d="m57.13,11.07c.69.19,1.03.55,1.03,1.08l3.16-.54-.25.28v.26h.25l2.36-.54.53.54c0,1.91-2.18,3.34-6.55,4.3l-.25,2.96v6.47l-.27,5.93h-.25l-.8-.54v2.68l-.53.54h-1.05c-1.56,0-2.86-1.71-3.92-5.12.7-7.34,1.31-11.01,1.83-11.01l.53.54.27-1.62h-.27l-2.63.26v-.54l-4.44.28c-1.92-.55-2.88-1-2.88-1.36,0-.59,2.79-1.21,8.38-1.86,0-.36.7-.54,2.1-.54,2.27-.8,3.41-1.61,3.41-2.44h.25Z"/>
    <path class="cls-1" d="m69.41,10.4c0,1.24,1.12,1.86,3.35,1.86h3.6v.26l-.25.26v.28h.25l1.29-.28.25.28v.8c0,1.25-.94,2.22-2.82,2.9l-.78-.28-2.07,3.44-.25-.26-.25,1.84c.52,0,.78.18.78.54h3.08l2.07,1.86v.24c0,.24-1.89.68-5.67,1.32,0,.36-.6.54-1.79.54l.25.26v.28l-.25,2.38v.24h.25c3.65-.48,5.88-.92,6.7-1.32l.51.8-.25,1.86-1.03-.26c-.46,0-.8.61-1.03,1.84l-1.29.54.25.26v.26l-7.46,1.32c-1.55-1.89-2.32-3.22-2.32-3.96l1.03-3.44v-.26c-.51,0-.76-.18-.76-.54v-1.04c.73-1.47,1.32-3.68,1.79-6.63.86-1.57,1.29-2.9,1.29-3.96-.92,0-1.87-.89-2.84-2.66l.78-.52,2.83.52v-.24c.13-.89.39-1.34.78-1.34Z"/>
    <path class="cls-5" d="m81.91,11.25h.19c.95.44,3.11,1.95,6.49,4.52,2.46,1.16,3.71,1.88,3.78,2.14l-.21,1.72.41,1.08c-.91,2.16-2.37,3.24-4.38,3.24l-1.27,1.06v.86l5.46,5.81v.22l-.64-.22h-.21v.22c.38,0,.87.36,1.48,1.08l-.21.22c-1.95,0-4.73-1.87-8.36-5.61h-.21c-.21.01-.56.95-1.05,2.8l.19,1.06v2.58l-.19.22v.22l-1.46-1.28-.43.42c-.56-.68-.84-1.33-.84-1.94-.56,0-.84-.35-.84-1.06-.56,0-.84-1.22-.84-3.66,0-3.63,1.25-7.43,3.76-11.41l-1.03-1.06.21-1.3-.21-.22.82-.22-.39-1.5Zm4.6,8.83l-1.48,3.66c2.25-.84,3.37-1.49,3.37-1.94l-1.7-1.72h-.19Z"/>
    <path class="cls-7" d="m100.3,11.21h.62c0,.44.69.66,2.06.66l.21.2.84-.2h.21c.36,0,1.05,1.85,2.07,5.55.27,0,.41.28.41.84h.21c1.06-3.42,2.24-5.12,3.53-5.12l.84-.84.62.62v.22c-1.25,3.15-2.63,8.35-4.15,15.6h-.41v-.64l-.43.44v1.92l-.21.2v.22l-.19-.22h-.41l.2,1.06-.41.44.21,1.7h-.21c-.75-.71-2-4.2-3.74-10.47l-1.25-4.46c-.25,0-.6.78-1.05,2.34l.21.84c0,.29-.28.44-.84.44l-.2.22v.2l.41.42v1.08l.2,1.7-.2,1.92c0,1.76.28,2.9.84,3.4-.43,0-.64.43-.64,1.3l-.2.2-.62,1.5c-2.04,0-3.7-.43-4.99-1.28l.41-1.28-.41-2.98c.42-4.56.9-6.85,1.46-6.85l.2.22v-.86h.43v.64c0,.77.28,1.27.84,1.5l3.1-8.55-.62-2.56v-.2c0-.28.35-.42,1.05-.42v-.66Z"/>
    <path class="cls-2" d="m119.26,11.01h.64l.41.88.84-.22,1.46.22.64-.22c.97,1,2.09,5.16,3.35,12.47h-.41v.66l.2.22v.2h-.41l-.21-.84h-.21l-.21,2.56c.29.59.5,1.81.64,3.68h-.21c-.32,0-.53-.51-.62-1.52h-.21v.64l.41,1.94c-.27,0-.41.22-.41.66l.21,1.5h-.21c-.7-.61-1.89-3.92-3.56-9.91-1.84,0-2.82,1.22-2.92,3.66v.64c0,1.63.27,2.7.82,3.22-.34,0-.68.79-1.03,2.38l-.64.64c-3.21-.43-4.81-.86-4.81-1.3l.41-1.28-.41-3.02,1.05-7.31c.27,0,.41.21.41.64h.21v-.86h.41v1.28l.64.66-.21.2v.44h.21c1.87-5.12,3.06-8.07,3.57-8.83-.56-1.23-.84-2.3-.84-3.22.69,0,1.03-.29,1.03-.88Zm.21,7.77c0,.92-.21,1.64-.62,2.14l.21,1.08-.21,1.5h.41c.75,0,1.25-.29,1.48-.86v-.64l-.84-3.22h-.43Z"/>
    <path class="cls-4" d="m132.1,10.93c0,.56,1.51,2.29,4.54,5.19v.78c-.84,2.24-1.43,3.36-1.75,3.36l-.25-.26-1.77,5.95.27,1.04-.27,2.08v.24h.27l6.04-1.02,1.25.78c0,.76-.75,1.28-2.26,1.54,0,1.38-.51,2.06-1.52,2.06l.27.28v.24l-7.33,1.3c-1.51-1.87-2.26-3.16-2.26-3.88.8-2.03,1.47-6.34,2.01-12.93h.51v.52h.25c0-2.4.67-4.82,2.01-7.27Z"/>
  </g>
</svg>