<?xml version="1.0" encoding="UTF-8"?>
<svg id="Capa_1" data-name="Capa 1" xmlns="http://www.w3.org/2000/svg" xmlns:xlink="http://www.w3.org/1999/xlink" viewBox="0 0 265.6 187.59">
  <defs>
    <style>
      .cls-1 {
        fill: url(#Nueva_muestra_de_degradado_2-2);
      }

      .cls-1, .cls-2 {
        stroke: #000;
        stroke-miterlimit: 10;
      }

      .cls-2 {
        fill: url(#Nueva_muestra_de_degradado_2);
        stroke-width: .75px;
      }
    </style>
    <linearGradient id="Nueva_muestra_de_degradado_2" data-name="Nueva muestra de degradado 2" x1="81.54" y1="128.66" x2="58.22" y2="-3.55" gradientUnits="userSpaceOnUse">
      <stop offset=".03" stop-color="#000"/>
      <stop offset=".23" stop-color="#ff6315"/>
      <stop offset=".26" stop-color="#ff7227"/>
      <stop offset=".39" stop-color="#ffb979"/>
      <stop offset=".48" stop-color="#ffe5ad"/>
      <stop offset=".52" stop-color="#fff7c2"/>
      <stop offset=".55" stop-color="#f9dfa7"/>
      <stop offset=".61" stop-color="#edb474"/>
      <stop offset=".66" stop-color="#e4904a"/>
      <stop offset=".71" stop-color="#dd742a"/>
      <stop offset=".76" stop-color="#d86012"/>
      <stop offset=".81" stop-color="#d55404"/>
      <stop offset=".85" stop-color="#d45000"/>
      <stop offset=".87" stop-color="#b84500"/>
      <stop offset=".9" stop-color="#772d00"/>
      <stop offset=".94" stop-color="#431900"/>
      <stop offset=".96" stop-color="#1e0b00"/>
      <stop offset=".99" stop-color="#080300"/>
      <stop offset="1" stop-color="#000"/>
    </linearGradient>
    <linearGradient id="Nueva_muestra_de_degradado_2-2" data-name="Nueva muestra de degradado 2" x1="201.84" y1="187.06" x2="201.84" y2="53.12" xlink:href="#Nueva_muestra_de_degradado_2"/>
  </defs>
  <path class="cls-2" d="m59.64.38c0,3.41-2.52,5.96,2.22,7.67,4.75,1.7,11.86,2.56,21.36,2.56h30.58v1.5l-1.12.7-1.12.7v1.5h2.24l5.47-.75,5.47-.75,1.05.75,1.05.75v4.41c0,3.47-2,6.54-6,9.22-4,2.67-9.99,4.95-17.99,6.82l-11.97-3.39-3.3-.75-6.29,12.39-2.57,9.3-1.05-.75-1.05-.75-1.12,5.11-1.12,5.11c2.2,0,3.85.25,4.94.75,1.1.5,1.65,1.25,1.65,2.25h26.23l8.77,5.11,8.77,5.11v1.41c0,.66-4.01,1.59-12.03,2.81-8.02,1.22-20.05,2.72-36.08,4.5,0,.97-1.27,1.7-3.82,2.18-2.55.49-6.37.73-11.47.73l1.05.75,1.05.75v1.5l-1.05,6.56-1.05,6.56v1.41h2.1c15.52-1.34,28.03-2.62,37.52-3.84,9.49-1.22,15.97-2.38,19.43-3.47l2.17,2.2,2.17,2.2-1.12,5.11-1.12,5.11-4.35-.7-4.35-.7c-1.92,0-3.61.85-5.09,2.56-1.47,1.7-2.72,4.26-3.75,7.67l-5.4,1.45-5.4,1.45,1.05.75,1.05.75v1.41l-31.7,3.66-31.7,3.66c-6.55-5.25-11.46-9.71-14.73-13.37s-4.91-6.52-4.91-8.58l4.35-9.47,4.35-9.47v-1.5c-2.15,0-3.76-.24-4.84-.73-1.08-.48-1.61-1.21-1.61-2.18v-5.81c3.09-4.06,5.9-9.14,8.45-15.24,2.55-6.1,4.83-13.21,6.84-21.34,3.65-4.35,6.38-8.35,8.21-12.01,1.82-3.66,2.74-6.97,2.74-9.94-3.93,0-12.07.74-16.1-1.7C21.58,19.6,4.96,11.44.85,6.56l20.02,1.08,4.73,2.01,12.38-6.19,10.17,5.63v-1.41c.56-2.44,1.39-4.27,2.49-5.49,1.1-1.22,7.36-1.83,9-1.83Z"/>
  <path class="cls-1" d="m234.81,53.12l27.56,4.95,2.68,2.42-1.29,6.26v11.11c-3.29,31.45-6.83,47.17-10.62,47.17h-2.57v-2.53h-2.68l-19.73,57.07,2.68,6.26-1.39,1.21c-9.15-1.62-18.34-8.65-27.56-21.11-2.86-4.71-5.94-8.01-9.22-9.9l-7.94,23.54,2.57,6.26-1.29,1.21c-9.22-1.62-18.44-8.65-27.67-21.11-8.58-8.21-15.16-23.1-19.73-44.65,1.79,0,2.68-2.05,2.68-6.16h1.29l1.29,1.21h1.29v-1.21l-1.29-7.47,1.29-6.16c-3.5-8.08-5.25-15.12-5.25-21.11h1.39c2.57.81,3.86,3.27,3.86,7.37h1.39v-4.95l-2.68-7.37,1.29-6.26-1.29-7.37,1.29-1.31h1.39c19.3,39.06,28.95,62.63,28.95,70.71,1.71,0,3.04,11.18,3.97,33.54h1.29l5.25-22.32v-1.21l-3.97-19.9c1.79,0,2.68-2.05,2.68-6.16l3.97-1.31-5.25-33.43,2.57-2.53-3.97-4.95c2.43-2.63,4.18-7.58,5.25-14.85,1.79,0,2.68-1.25,2.68-3.74,21.09,1.62,31.63,3.67,31.63,6.16l-1.39,6.26v11.11c0,10.51-1.75,22.49-5.25,35.96,5.29,19.06,7.93,36.03,7.93,50.91h1.29l9.22-38.48,2.68-2.42c-1.79,0-3.54-7.04-5.25-21.11l1.29-7.47c-.79-10.84-2.97-18.28-6.54-22.32,1.93-1.88,3.68-6.83,5.25-14.85,2.14,0,3.47-1.65,3.97-4.95Z"/>
</svg>