<?xml version="1.0" encoding="UTF-8"?>
<svg id="Capa_1" data-name="Capa 1" xmlns="http://www.w3.org/2000/svg" xmlns:xlink="http://www.w3.org/1999/xlink" viewBox="0 0 192 89">
  <defs>
    <style>
      .cls-1 {
        fill: url(#Nueva_muestra_de_degradado_2-11);
      }

      .cls-1, .cls-2, .cls-3, .cls-4, .cls-5, .cls-6, .cls-7, .cls-8, .cls-9, .cls-10, .cls-11, .cls-12, .cls-13, .cls-14, .cls-15 {
        stroke: #000;
        stroke-miterlimit: 10;
      }

      .cls-1, .cls-7, .cls-8, .cls-9, .cls-10, .cls-12, .cls-15 {
        stroke-width: .6px;
      }

      .cls-2 {
        fill: url(#Nueva_muestra_de_degradado_2-8);
        stroke-width: .74px;
      }

      .cls-3 {
        fill: url(#Nueva_muestra_de_degradado_2-6);
      }

      .cls-3, .cls-4, .cls-6, .cls-11, .cls-13, .cls-14 {
        stroke-width: .5px;
      }

      .cls-4 {
        fill: url(#Nueva_muestra_de_degradado_2-2);
      }

      .cls-5 {
        fill: url(#Nueva_muestra_de_degradado_2);
        stroke-width: .78px;
      }

      .cls-6 {
        fill: url(#Nueva_muestra_de_degradado_2-3);
      }

      .cls-7 {
        fill: url(#Nueva_muestra_de_degradado_2-12);
      }

      .cls-8 {
        fill: url(#Nueva_muestra_de_degradado_2-10);
      }

      .cls-9 {
        fill: url(#Nueva_muestra_de_degradado_2-13);
      }

      .cls-10 {
        fill: url(#Nueva_muestra_de_degradado_2-14);
      }

      .cls-11 {
        fill: url(#Nueva_muestra_de_degradado_2-4);
      }

      .cls-12 {
        fill: url(#Nueva_muestra_de_degradado_2-15);
      }

      .cls-13 {
        fill: url(#Nueva_muestra_de_degradado_2-5);
      }

      .cls-14 {
        fill: url(#Nueva_muestra_de_degradado_2-7);
      }

      .cls-15 {
        fill: url(#Nueva_muestra_de_degradado_2-9);
      }
    </style>
    <linearGradient id="Nueva_muestra_de_degradado_2" data-name="Nueva muestra de degradado 2" x1="27.54" y1="45.84" x2="19.45" y2="-.09" gradientUnits="userSpaceOnUse">
      <stop offset=".03" stop-color="#000"/>
      <stop offset=".23" stop-color="#ff6315"/>
      <stop offset=".26" stop-color="#ff7227"/>
      <stop offset=".39" stop-color="#ffb979"/>
      <stop offset=".48" stop-color="#ffe5ad"/>
      <stop offset=".52" stop-color="#fff7c2"/>
      <stop offset=".55" stop-color="#f9dfa7"/>
      <stop offset=".61" stop-color="#edb474"/>
      <stop offset=".66" stop-color="#e4904a"/>
      <stop offset=".71" stop-color="#dd742a"/>
      <stop offset=".76" stop-color="#d86012"/>
      <stop offset=".81" stop-color="#d55404"/>
      <stop offset=".85" stop-color="#d45000"/>
      <stop offset=".87" stop-color="#b84500"/>
      <stop offset=".9" stop-color="#772d00"/>
      <stop offset=".94" stop-color="#431900"/>
      <stop offset=".96" stop-color="#1e0b00"/>
      <stop offset=".99" stop-color="#080300"/>
      <stop offset="1" stop-color="#000"/>
    </linearGradient>
    <linearGradient id="Nueva_muestra_de_degradado_2-2" data-name="Nueva muestra de degradado 2" x1="56.54" y1="36.79" x2="51.74" y2="20.08" xlink:href="#Nueva_muestra_de_degradado_2"/>
    <linearGradient id="Nueva_muestra_de_degradado_2-3" data-name="Nueva muestra de degradado 2" x1="70.39" y1="36.57" x2="65.29" y2="18.79" xlink:href="#Nueva_muestra_de_degradado_2"/>
    <linearGradient id="Nueva_muestra_de_degradado_2-4" data-name="Nueva muestra de degradado 2" x1="83.15" y1="37.66" x2="77.84" y2="19.13" xlink:href="#Nueva_muestra_de_degradado_2"/>
    <linearGradient id="Nueva_muestra_de_degradado_2-5" data-name="Nueva muestra de degradado 2" x1="98.52" y1="37.17" x2="93.41" y2="19.33" xlink:href="#Nueva_muestra_de_degradado_2"/>
    <linearGradient id="Nueva_muestra_de_degradado_2-6" data-name="Nueva muestra de degradado 2" x1="112.63" y1="37.98" x2="107.47" y2="19.99" xlink:href="#Nueva_muestra_de_degradado_2"/>
    <linearGradient id="Nueva_muestra_de_degradado_2-7" data-name="Nueva muestra de degradado 2" x1="124.53" y1="37.05" x2="119.57" y2="19.73" xlink:href="#Nueva_muestra_de_degradado_2"/>
    <linearGradient id="Nueva_muestra_de_degradado_2-8" data-name="Nueva muestra de degradado 2" x1="83.28" y1="88.64" x2="75.92" y2="42.22" xlink:href="#Nueva_muestra_de_degradado_2"/>
    <linearGradient id="Nueva_muestra_de_degradado_2-9" data-name="Nueva muestra de degradado 2" x1="103.1" y1="82.41" x2="103.1" y2="62.11" xlink:href="#Nueva_muestra_de_degradado_2"/>
    <linearGradient id="Nueva_muestra_de_degradado_2-10" data-name="Nueva muestra de degradado 2" x1="115.87" y1="82.41" x2="115.87" y2="62.32" xlink:href="#Nueva_muestra_de_degradado_2"/>
    <linearGradient id="Nueva_muestra_de_degradado_2-11" data-name="Nueva muestra de degradado 2" x1="128.93" y1="82.41" x2="128.93" y2="62.32" xlink:href="#Nueva_muestra_de_degradado_2"/>
    <linearGradient id="Nueva_muestra_de_degradado_2-12" data-name="Nueva muestra de degradado 2" x1="139.77" y1="82.41" x2="139.77" y2="58.18" xlink:href="#Nueva_muestra_de_degradado_2"/>
    <linearGradient id="Nueva_muestra_de_degradado_2-13" data-name="Nueva muestra de degradado 2" x1="153.29" y1="82.41" x2="153.29" y2="62.44" xlink:href="#Nueva_muestra_de_degradado_2"/>
    <linearGradient id="Nueva_muestra_de_degradado_2-14" data-name="Nueva muestra de degradado 2" x1="168.81" y1="82.41" x2="168.81" y2="62.32" xlink:href="#Nueva_muestra_de_degradado_2"/>
    <linearGradient id="Nueva_muestra_de_degradado_2-15" data-name="Nueva muestra de degradado 2" x1="183.38" y1="82.41" x2="183.38" y2="62.34" xlink:href="#Nueva_muestra_de_degradado_2"/>
  </defs>
  <path class="cls-5" d="m20.14,1c0,1.19-.82,2.09.72,2.69s3.87.9,6.97.9h9.98v.53l-.37.25-.37.25v.53h.73l1.78-.26,1.78-.26.34.26.34.26v1.54c0,1.22-.65,2.29-1.96,3.23s-3.26,1.73-5.87,2.39l-3.91-1.19-1.08-.26-2.05,4.34-.84,3.26-.34-.26-.34-.26-.37,1.79-.37,1.79c.72,0,1.25.09,1.61.26s.54.44.54.79h8.56l2.86,1.79,2.86,1.79v.49c0,.23-1.31.56-3.92.99-2.62.43-6.54.95-11.77,1.58,0,.34-.42.59-1.25.76s-2.08.25-3.74.25l.34.26.34.26v.53l-.34,2.3-.34,2.3v.49h.69c5.06-.47,9.15-.92,12.24-1.35s5.21-.83,6.34-1.22l.71.77.71.77-.37,1.79-.37,1.79-1.42-.25-1.42-.25c-.63,0-1.18.3-1.66.9s-.89,1.49-1.22,2.69l-1.76.51-1.76.51.34.26.34.26v.49l-10.34,1.28-10.34,1.28c-2.14-1.84-3.74-3.4-4.81-4.68s-1.6-2.28-1.6-3.01l1.42-3.32,1.42-3.32v-.53c-.7,0-1.23-.08-1.58-.25s-.53-.42-.53-.76v-2.04c1.01-1.42,1.93-3.2,2.76-5.34s1.57-4.63,2.23-7.48c1.19-1.52,2.08-2.92,2.68-4.21s.89-2.44.89-3.48c-1.28,0-3.94.26-5.25-.59S2.3,4.88.96,3.17l6.53.38,1.54.71,4.04-2.17,3.32,1.97v-.49c.18-.85.45-1.5.81-1.92s2.4-.64,2.94-.64Z"/>
  <g>
    <path class="cls-4" d="m55.29,19.13c.61.15.92.43.92.85l2.81-.43-.23.22v.2h.23l2.1-.43.47.43c0,1.5-1.94,2.63-5.83,3.39l-.23,2.33v5.09l-.24,4.66h-.23l-.71-.42v2.11l-.47.43h-.94c-1.39,0-2.55-1.34-3.49-4.03.63-5.77,1.17-8.66,1.63-8.66l.47.43.24-1.28h-.24l-2.34.2v-.43l-3.96.22c-1.71-.43-2.57-.79-2.57-1.07,0-.46,2.49-.95,7.46-1.46,0-.28.63-.43,1.87-.43,2.02-.63,3.04-1.27,3.04-1.92h.23Z"/>
    <path class="cls-6" d="m66.22,18.61c0,.98.99,1.46,2.98,1.46h3.21v.2l-.23.2v.22h.23l1.15-.22.23.22v.63c0,.99-.84,1.75-2.52,2.28l-.69-.22-1.84,2.71-.23-.2-.23,1.45c.46,0,.69.14.69.43h2.74l1.84,1.46v.19c0,.19-1.68.54-5.05,1.04,0,.28-.53.42-1.6.42l.23.21v.22l-.23,1.87v.19h.23c3.25-.38,5.24-.73,5.97-1.04l.45.63-.23,1.47-.92-.21c-.41,0-.71.48-.92,1.45l-1.15.43.23.2v.21l-6.65,1.04c-1.38-1.49-2.07-2.53-2.07-3.12l.92-2.71v-.21c-.45,0-.68-.14-.68-.42v-.82c.65-1.15,1.18-2.89,1.6-5.21.76-1.24,1.15-2.28,1.15-3.12-.82,0-1.67-.7-2.53-2.09l.69-.41,2.52.41v-.19c.12-.7.35-1.06.69-1.06Z"/>
    <path class="cls-11" d="m77.37,19.27h.17c.84.35,2.77,1.53,5.78,3.56,2.19.91,3.31,1.48,3.37,1.69l-.19,1.35.36.85c-.81,1.7-2.11,2.55-3.9,2.55l-1.13.84v.68l4.86,4.57v.17l-.57-.17h-.19v.17c.33,0,.78.28,1.32.85l-.19.17c-1.74,0-4.22-1.47-7.45-4.41h-.19c-.19.01-.5.75-.94,2.21l.17.83v2.03l-.17.17v.17l-1.3-1.01-.38.33c-.5-.53-.75-1.04-.75-1.53-.5,0-.75-.28-.75-.83-.5,0-.75-.96-.75-2.88,0-2.86,1.12-5.85,3.35-8.98l-.92-.83.19-1.02-.19-.17.73-.17-.35-1.18Zm4.1,6.95l-1.32,2.88c2-.66,3-1.17,3-1.53l-1.51-1.35h-.17Z"/>
    <path class="cls-13" d="m93.75,19.24h.56c0,.35.61.52,1.84.52l.19.16.75-.16h.19c.32,0,.94,1.45,1.84,4.36.24,0,.36.22.36.66h.19c.95-2.69,2-4.03,3.14-4.03l.75-.66.55.49v.17c-1.11,2.48-2.34,6.57-3.7,12.27h-.36v-.5l-.38.35v1.51l-.19.16v.17l-.17-.17h-.36l.17.83-.36.35.19,1.34h-.19c-.67-.56-1.78-3.3-3.33-8.24l-1.11-3.51c-.22,0-.53.61-.94,1.84l.19.66c0,.23-.25.35-.75.35l-.17.17v.16l.36.33v.85l.17,1.34-.17,1.51c0,1.39.25,2.28.75,2.68-.38,0-.57.34-.57,1.02l-.17.16-.55,1.18c-1.82,0-3.3-.34-4.44-1.01l.36-1.01-.36-2.35c.37-3.59.8-5.39,1.3-5.39l.17.17v-.68h.38v.5c0,.61.25,1,.75,1.18l2.76-6.73-.55-2.02v-.16c0-.22.31-.33.94-.33v-.52Z"/>
    <path class="cls-3" d="m110.63,19.08h.57l.36.69.75-.17,1.3.17.57-.17c.87.79,1.86,4.06,2.98,9.81h-.36v.52l.17.17v.16h-.36l-.19-.66h-.19l-.19,2.02c.25.46.45,1.43.57,2.9h-.19c-.29,0-.47-.4-.55-1.2h-.19v.5l.36,1.53c-.24,0-.36.17-.36.52l.19,1.18h-.19c-.62-.48-1.68-3.08-3.18-7.8-1.64,0-2.51.96-2.6,2.88v.5c0,1.28.24,2.13.73,2.54-.3,0-.61.63-.92,1.87l-.57.5c-2.86-.34-4.29-.68-4.29-1.02l.36-1.01-.36-2.38.94-5.75c.24,0,.36.17.36.5h.19v-.68h.36v1.01l.57.52-.19.16v.35h.19c1.67-4.03,2.72-6.35,3.18-6.95-.5-.97-.75-1.81-.75-2.54.61,0,.92-.23.92-.69Zm.19,6.11c0,.72-.19,1.29-.56,1.69l.19.85-.19,1.18h.36c.67,0,1.11-.23,1.32-.68v-.5l-.75-2.54h-.38Z"/>
    <path class="cls-14" d="m122.07,19.02c0,.44,1.35,1.8,4.04,4.08v.61c-.75,1.76-1.27,2.65-1.56,2.65l-.23-.2-1.58,4.68.24.82-.24,1.64v.19h.24l5.38-.8,1.11.61c0,.6-.67,1-2.01,1.21,0,1.08-.45,1.62-1.35,1.62l.24.22v.19l-6.52,1.02c-1.34-1.47-2.01-2.49-2.01-3.06.72-1.6,1.31-4.99,1.79-10.17h.45v.41h.23c0-1.89.6-3.8,1.79-5.72Z"/>
  </g>
  <path class="cls-2" d="m89.16,42.43l9.33,1.68.91.82-.44,2.13v3.78c-1.11,10.7-2.31,16.05-3.6,16.05h-.87v-.86h-.91l-6.68,19.42.91,2.13-.47.41c-3.1-.55-6.21-2.94-9.34-7.18-.97-1.6-2.01-2.73-3.12-3.37l-2.69,8.01.87,2.13-.43.41c-3.12-.55-6.25-2.94-9.37-7.18-2.91-2.8-5.13-7.86-6.68-15.19.6,0,.91-.7.91-2.1h.43l.44.41h.44v-.41l-.44-2.54.44-2.1c-1.19-2.75-1.78-5.14-1.78-7.18h.47c.87.28,1.31,1.11,1.31,2.51h.47v-1.68l-.91-2.51.44-2.13-.44-2.51.44-.45h.47c6.54,13.29,9.81,21.31,9.81,24.06.58,0,1.03,3.8,1.34,11.41h.43l1.78-7.6v-.41l-1.34-6.77c.6,0,.91-.7.91-2.1l1.34-.45-1.78-11.38.87-.86-1.34-1.68c.82-.89,1.42-2.58,1.78-5.05.6,0,.91-.42.91-1.27,7.14.55,10.71,1.25,10.71,2.1l-.47,2.13v3.78c0,3.58-.59,7.65-1.78,12.24,1.79,6.48,2.69,12.26,2.69,17.32h.43l3.12-13.09.91-.83c-.61,0-1.2-2.39-1.78-7.18l.43-2.54c-.27-3.69-1-6.22-2.22-7.6.66-.64,1.25-2.32,1.78-5.05.73,0,1.17-.56,1.34-1.68Z"/>
  <g>
    <path class="cls-15" d="m102.73,62.11h.56l.35.76.72-.19,1.26.19.56-.19c.84.87,1.81,4.46,2.9,10.78h-.35v.57l.17.19v.17h-.35l-.19-.73h-.19l-.19,2.21c.25.51.43,1.57.56,3.18h-.19c-.28,0-.46-.44-.54-1.32h-.19v.55l.35,1.68c-.24,0-.35.19-.35.57l.19,1.3h-.19c-.61-.53-1.63-3.39-3.08-8.57-1.6,0-2.44,1.06-2.53,3.17v.55c0,1.41.24,2.34.71,2.79-.29,0-.59.69-.89,2.06l-.56.55c-2.78-.37-4.16-.74-4.16-1.12l.35-1.11-.35-2.61.91-6.32c.24,0,.35.18.35.55h.19v-.74h.35v1.11l.56.57-.19.17v.38h.19c1.62-4.43,2.65-6.97,3.08-7.63-.48-1.06-.72-1.99-.72-2.78.6,0,.89-.25.89-.76Zm.19,6.71c0,.8-.18,1.41-.54,1.85l.19.93-.19,1.3h.35c.65,0,1.08-.25,1.28-.74v-.55l-.72-2.79h-.37Z"/>
    <path class="cls-8" d="m112.44,62.32h.17c.82.38,2.69,1.68,5.61,3.91,2.12,1,3.21,1.62,3.27,1.85l-.19,1.49.35.93c-.79,1.87-2.05,2.8-3.79,2.8l-1.1.92v.74l4.72,5.02v.19l-.56-.19h-.19v.19c.33,0,.75.31,1.28.93l-.19.19c-1.69,0-4.1-1.61-7.23-4.84h-.19c-.18.01-.48.82-.91,2.42l.17.92v2.23l-.17.19v.19l-1.26-1.11-.37.36c-.48-.59-.72-1.15-.72-1.68-.48,0-.72-.31-.72-.92-.48,0-.72-1.06-.72-3.17,0-3.14,1.08-6.43,3.25-9.86l-.89-.92.19-1.12-.19-.19.71-.19-.34-1.3Zm3.98,7.63l-1.28,3.17c1.94-.73,2.92-1.29,2.92-1.68l-1.47-1.49h-.17Z"/>
    <path class="cls-1" d="m125.5,62.32h.17c.82.38,2.69,1.68,5.61,3.91,2.12,1,3.21,1.62,3.27,1.85l-.19,1.49.35.93c-.79,1.87-2.05,2.8-3.79,2.8l-1.1.92v.74l4.72,5.02v.19l-.56-.19h-.19v.19c.33,0,.75.31,1.28.93l-.19.19c-1.69,0-4.1-1.61-7.23-4.84h-.19c-.18.01-.48.82-.91,2.42l.17.92v2.23l-.17.19v.19l-1.26-1.11-.37.36c-.48-.59-.72-1.15-.72-1.68-.48,0-.72-.31-.72-.92-.48,0-.72-1.06-.72-3.17,0-3.14,1.08-6.43,3.25-9.86l-.89-.92.19-1.12-.19-.19.71-.19-.34-1.3Zm3.98,7.63l-1.28,3.17c1.94-.73,2.92-1.29,2.92-1.68l-1.47-1.49h-.17Z"/>
    <path class="cls-7" d="m140.5,67.56c.57.22.86.44.86.66v.22c-.43,1.3-.71,5.38-.86,12.22h-.42v-.43h-.2c0,1.45-.21,2.18-.64,2.18h-.42c-1.47,0-2.47-1.09-2.98-3.27l.84-6.77h.44v.43h.2c.56-3.06,1.48-4.59,2.76-4.59l.42-.66Zm1.08-9.38l.62.23v.21l-.42,1.54c.9.4,1.54.91,1.92,1.52v.43l-1.06,1.52c.42,0,.62.15.62.45v.21l-5.95,2.4v-.23l.22-.21v-.23l-.42-.43,1.7-6.33c1.18-.73,2.1-1.09,2.76-1.09Z"/>
    <path class="cls-9" d="m155.52,62.44l1.16.71-.24.73c3.75,3.29,5.63,5.21,5.63,5.78v1.44c0,3.44-2.19,6.81-6.56,10.1-.76.48-1.78.73-3.05.73h-1.18l-.47.48c-3.53,0-5.64-2.49-6.32-7.46,0-4.71,1.56-8.4,4.69-11.07l.24-.24h.24l.24.24v.24l-.71.73c2.67-1.6,4.79-2.41,6.34-2.41Zm3.27,7.22l-1.4-.48c-1.88,0-3.83,2.01-5.87,6.02-.31.62-.47,1.51-.47,2.65,0,.36.39.59,1.18.71,3.29,0,5.64-2.32,7.05-6.97v-2.65c-.33,0-.49.24-.49.73Z"/>
    <path class="cls-10" d="m165.38,62.32h.17c.82.38,2.69,1.68,5.61,3.91,2.12,1,3.21,1.62,3.27,1.85l-.19,1.49.35.93c-.79,1.87-2.05,2.8-3.79,2.8l-1.1.92v.74l4.72,5.02v.19l-.56-.19h-.19v.19c.33,0,.75.31,1.28.93l-.19.19c-1.69,0-4.1-1.61-7.23-4.84h-.19c-.18.01-.48.82-.91,2.42l.17.92v2.23l-.17.19v.19l-1.26-1.11-.37.36c-.48-.59-.72-1.15-.72-1.68-.48,0-.72-.31-.72-.92-.48,0-.72-1.06-.72-3.17,0-3.14,1.08-6.43,3.25-9.86l-.89-.92.19-1.12-.19-.19.71-.19-.34-1.3Zm3.98,7.63l-1.28,3.17c1.94-.73,2.92-1.29,2.92-1.68l-1.47-1.49h-.17Z"/>
    <path class="cls-12" d="m188.17,62.34c0,.13.17.25.51.38l.24-.26c1,2.03,1.5,3.18,1.5,3.44l-.13.14v.14l.27.76c-.13.35-.26.52-.39.52h-1.62c-.49-.52-1.07-.78-1.74-.78l-.13-.12c-1.07,0-2.39.85-3.98,2.54,0,1.03,1.25,1.75,3.74,2.18.73,0,1.52.3,2.36.9.99.47,1.48,1.03,1.48,1.66l.13-.14h.25l.37,1.92v.78c0,1.71-.75,3.16-2.24,4.34l-.37-.14c-1.08,1.2-2.53,1.8-4.37,1.8-.19-.15-1.22-.36-3.1-.64-1.3-.44-2.43-1.21-3.37-2.3l-.88-1.16v-.24l.37.24v-.12c-.87-1.47-1.32-2.87-1.36-4.22h.25l.51,1.92h.12v-.12l-.39-.9h.13c1.52,2.21,2.55,3.32,3.1,3.32.98.76,2.02,1.14,3.12,1.14h.76c1.46-.24,2.46-.66,2.98-1.26.42,0,.66-.81.74-2.44-.44-1.19-1.56-1.78-3.35-1.78,0-.15-.21-.24-.62-.26l-.12.12v.14c-2.99-.83-4.48-2.11-4.48-3.84v-.12l.12-.38-.12-.14h-.13c.3-.9,1.01-2.09,2.12-3.58l-.13-.38c2.45-1.88,4.61-2.82,6.49-2.82v.14l1.36-.38Z"/>
  </g>
</svg>