<?xml version="1.0" encoding="utf-8"?>
<!-- Generator: Adobe Illustrator 28.0.0, SVG Export Plug-In . SVG Version: 6.00 Build 0)  -->
<svg version="1.1" id="Capa_1" xmlns="http://www.w3.org/2000/svg" xmlns:xlink="http://www.w3.org/1999/xlink" x="0px" y="0px"
	 viewBox="0 0 142 70" style="enable-background:new 0 0 142 70;" xml:space="preserve">
<style type="text/css">
	.st0{fill:url(#SVGID_1_);stroke:#000000;stroke-width:0.75;stroke-miterlimit:10;}
	
		.st1{fill:url(#SVGID_00000040562977129880737060000000212558723277774266_);stroke:#000000;stroke-width:0.5;stroke-miterlimit:10;}
	
		.st2{fill:url(#SVGID_00000061462869448755580490000013069691655788955782_);stroke:#000000;stroke-width:0.5;stroke-miterlimit:10;}
	
		.st3{fill:url(#SVGID_00000044152901364349335480000004098290666715790485_);stroke:#000000;stroke-width:0.5;stroke-miterlimit:10;}
	
		.st4{fill:url(#SVGID_00000071545807557496930140000003655301070678054570_);stroke:#000000;stroke-width:0.5;stroke-miterlimit:10;}
	
		.st5{fill:url(#SVGID_00000170267017026125711410000012721419133434624140_);stroke:#000000;stroke-width:0.5;stroke-miterlimit:10;}
	
		.st6{fill:url(#SVGID_00000130618018252299921780000005579687315116164769_);stroke:#000000;stroke-width:0.5;stroke-miterlimit:10;}
	.st7{fill:none;}
</style>
<g>
	<linearGradient id="SVGID_1_" gradientUnits="userSpaceOnUse" x1="28.0767" y1="54.9663" x2="20.5427" y2="12.2392">
		<stop  offset="2.513117e-02" style="stop-color:#000000"/>
		<stop  offset="0.2304" style="stop-color:#FF6315"/>
		<stop  offset="0.2574" style="stop-color:#FF7227"/>
		<stop  offset="0.3873" style="stop-color:#FFB97A"/>
		<stop  offset="0.4793" style="stop-color:#FFE6AE"/>
		<stop  offset="0.5241" style="stop-color:#FFF7C2"/>
		<stop  offset="0.5507" style="stop-color:#F9E0A7"/>
		<stop  offset="0.6062" style="stop-color:#EEB475"/>
		<stop  offset="0.6611" style="stop-color:#E5904B"/>
		<stop  offset="0.7141" style="stop-color:#DD742A"/>
		<stop  offset="0.7649" style="stop-color:#D86013"/>
		<stop  offset="0.8124" style="stop-color:#D55405"/>
		<stop  offset="0.8534" style="stop-color:#D45000"/>
		<stop  offset="0.8674" style="stop-color:#B84600"/>
		<stop  offset="0.9029" style="stop-color:#772D00"/>
		<stop  offset="0.9352" style="stop-color:#441A00"/>
		<stop  offset="0.9632" style="stop-color:#1F0C00"/>
		<stop  offset="0.9857" style="stop-color:#080300"/>
		<stop  offset="1" style="stop-color:#000000"/>
	</linearGradient>
	<path class="st0" d="M21,13.5c0,1.1-0.8,1.9,0.7,2.5s3.8,0.8,6.9,0.8h4.9h4.9v0.2v0.2l-0.4,0.2l-0.4,0.2V18v0.2h0.4h0.4l1.8-0.2
		l1.8-0.2l0.3,0.2l0.3,0.2v0.7v0.7c0,1.1-0.6,2.1-1.9,3c-1.3,0.9-3.2,1.6-5.8,2.2l-3.9-1.1L30,23.5l-2,4l-0.8,3l-0.3-0.2L26.5,30
		l-0.4,1.7l-0.4,1.7c0.7,0,1.2,0.1,1.6,0.2s0.5,0.4,0.5,0.7h4.2h4.2l2.8,1.7l2.8,1.7v0.2v0.2c0,0.2-1.3,0.5-3.9,0.9
		c-2.6,0.4-6.5,0.9-11.7,1.5c0,0.3-0.4,0.5-1.2,0.7c-0.8,0.2-2.1,0.2-3.7,0.2l0.3,0.2l0.3,0.2v0.2v0.2l-0.3,2.1l-0.3,2.1v0.2V47h0.3
		h0.3c5-0.4,9.1-0.8,12.1-1.2c3.1-0.4,5.2-0.8,6.3-1.1l0.7,0.7l0.7,0.7l-0.4,1.7l-0.4,1.7l-1.4-0.2l-1.4-0.2c-0.6,0-1.2,0.3-1.6,0.8
		s-0.9,1.4-1.2,2.5l-1.7,0.5l-1.7,0.5l0.3,0.2l0.3,0.2v0.2v0.2l-10.2,1.2l-10.2,1.2c-2.1-1.7-3.7-3.1-4.8-4.3S6,50.1,6,49.4l1.4-3.1
		l1.4-3.1V43v-0.2c-0.7,0-1.2-0.1-1.6-0.2s-0.5-0.4-0.5-0.7v-0.9V40c1-1.3,1.9-3,2.7-4.9c0.8-2,1.6-4.3,2.2-6.9
		c1.2-1.4,2.1-2.7,2.7-3.9c0.6-1.2,0.9-2.3,0.9-3.2c-1.3,0-3.9,0.2-5.2-0.5s-6.7-3.4-8-5l6.5,0.3l1.5,0.7l4-2l3.3,1.8v-0.2v-0.2
		c0.2-0.8,0.4-1.4,0.8-1.8C18.4,13.7,20.5,13.5,21,13.5z"/>
</g>
<g>
	
		<linearGradient id="SVGID_00000045616655549637814040000003598868481640964493_" gradientUnits="userSpaceOnUse" x1="60.3173" y1="46.5875" x2="54.2119" y2="25.2952">
		<stop  offset="2.513117e-02" style="stop-color:#000000"/>
		<stop  offset="0.2304" style="stop-color:#FF6315"/>
		<stop  offset="0.2574" style="stop-color:#FF7227"/>
		<stop  offset="0.3873" style="stop-color:#FFB97A"/>
		<stop  offset="0.4793" style="stop-color:#FFE6AE"/>
		<stop  offset="0.5241" style="stop-color:#FFF7C2"/>
		<stop  offset="0.5507" style="stop-color:#F9E0A7"/>
		<stop  offset="0.6062" style="stop-color:#EEB475"/>
		<stop  offset="0.6611" style="stop-color:#E5904B"/>
		<stop  offset="0.7141" style="stop-color:#DD742A"/>
		<stop  offset="0.7649" style="stop-color:#D86013"/>
		<stop  offset="0.8124" style="stop-color:#D55405"/>
		<stop  offset="0.8534" style="stop-color:#D45000"/>
		<stop  offset="0.8674" style="stop-color:#B84600"/>
		<stop  offset="0.9029" style="stop-color:#772D00"/>
		<stop  offset="0.9352" style="stop-color:#441A00"/>
		<stop  offset="0.9632" style="stop-color:#1F0C00"/>
		<stop  offset="0.9857" style="stop-color:#080300"/>
		<stop  offset="1" style="stop-color:#000000"/>
	</linearGradient>
	
		<path style="fill:url(#SVGID_00000045616655549637814040000003598868481640964493_);stroke:#000000;stroke-width:0.5;stroke-miterlimit:10;" d="
		M58.3,24.2c0.7,0.2,1,0.5,1,1.1l3.2-0.5L62.2,25v0.3h0.3l2.4-0.5l0.5,0.5c0,1.9-2.2,3.3-6.5,4.3l-0.3,3V39l-0.3,5.9H58l-0.8-0.5
		v2.7l-0.5,0.5h-1.1c-1.6,0-2.9-1.7-3.9-5.1c0.7-7.3,1.3-11,1.8-11l0.5,0.5l0.3-1.6h-0.3l-2.6,0.3v-0.5L47,30.4
		c-1.9-0.5-2.9-1-2.9-1.4c0-0.6,2.8-1.2,8.4-1.9c0-0.4,0.7-0.5,2.1-0.5c2.3-0.8,3.4-1.6,3.4-2.4H58.3z"/>
	
		<linearGradient id="SVGID_00000008119966087610374420000003488487660288964795_" gradientUnits="userSpaceOnUse" x1="75.5841" y1="46.2627" x2="69.1764" y2="23.9163">
		<stop  offset="2.513117e-02" style="stop-color:#000000"/>
		<stop  offset="0.2304" style="stop-color:#FF6315"/>
		<stop  offset="0.2574" style="stop-color:#FF7227"/>
		<stop  offset="0.3873" style="stop-color:#FFB97A"/>
		<stop  offset="0.4793" style="stop-color:#FFE6AE"/>
		<stop  offset="0.5241" style="stop-color:#FFF7C2"/>
		<stop  offset="0.5507" style="stop-color:#F9E0A7"/>
		<stop  offset="0.6062" style="stop-color:#EEB475"/>
		<stop  offset="0.6611" style="stop-color:#E5904B"/>
		<stop  offset="0.7141" style="stop-color:#DD742A"/>
		<stop  offset="0.7649" style="stop-color:#D86013"/>
		<stop  offset="0.8124" style="stop-color:#D55405"/>
		<stop  offset="0.8534" style="stop-color:#D45000"/>
		<stop  offset="0.8674" style="stop-color:#B84600"/>
		<stop  offset="0.9029" style="stop-color:#772D00"/>
		<stop  offset="0.9352" style="stop-color:#441A00"/>
		<stop  offset="0.9632" style="stop-color:#1F0C00"/>
		<stop  offset="0.9857" style="stop-color:#080300"/>
		<stop  offset="1" style="stop-color:#000000"/>
	</linearGradient>
	
		<path style="fill:url(#SVGID_00000008119966087610374420000003488487660288964795_);stroke:#000000;stroke-width:0.5;stroke-miterlimit:10;" d="
		M70.6,23.5c0,1.2,1.1,1.9,3.4,1.9h3.6v0.3l-0.3,0.3v0.3h0.3l1.3-0.3l0.3,0.3V27c0,1.3-0.9,2.2-2.8,2.9l-0.8-0.3l-2.1,3.4l-0.3-0.3
		l-0.3,1.8c0.5,0,0.8,0.2,0.8,0.5h3.1l2.1,1.9v0.2c0,0.2-1.9,0.7-5.7,1.3c0,0.4-0.6,0.5-1.8,0.5l0.3,0.3v0.3l-0.3,2.4v0.2h0.3
		c3.6-0.5,5.9-0.9,6.7-1.3l0.5,0.8l-0.3,1.9l-1-0.3c-0.5,0-0.8,0.6-1,1.8l-1.3,0.5l0.3,0.3v0.3L68,47.6c-1.5-1.9-2.3-3.2-2.3-4
		l1-3.4V40c-0.5,0-0.8-0.2-0.8-0.5v-1c0.7-1.5,1.3-3.7,1.8-6.6c0.9-1.6,1.3-2.9,1.3-4c-0.9,0-1.9-0.9-2.8-2.7l0.8-0.5l2.8,0.5v-0.2
		C69.9,24,70.2,23.5,70.6,23.5z"/>
	
		<linearGradient id="SVGID_00000022560794692417961510000007987658510685620911_" gradientUnits="userSpaceOnUse" x1="89.8534" y1="47.5125" x2="83.2085" y2="24.3392">
		<stop  offset="2.513117e-02" style="stop-color:#000000"/>
		<stop  offset="0.2304" style="stop-color:#FF6315"/>
		<stop  offset="0.2574" style="stop-color:#FF7227"/>
		<stop  offset="0.3873" style="stop-color:#FFB97A"/>
		<stop  offset="0.4793" style="stop-color:#FFE6AE"/>
		<stop  offset="0.5241" style="stop-color:#FFF7C2"/>
		<stop  offset="0.5507" style="stop-color:#F9E0A7"/>
		<stop  offset="0.6062" style="stop-color:#EEB475"/>
		<stop  offset="0.6611" style="stop-color:#E5904B"/>
		<stop  offset="0.7141" style="stop-color:#DD742A"/>
		<stop  offset="0.7649" style="stop-color:#D86013"/>
		<stop  offset="0.8124" style="stop-color:#D55405"/>
		<stop  offset="0.8534" style="stop-color:#D45000"/>
		<stop  offset="0.8674" style="stop-color:#B84600"/>
		<stop  offset="0.9029" style="stop-color:#772D00"/>
		<stop  offset="0.9352" style="stop-color:#441A00"/>
		<stop  offset="0.9632" style="stop-color:#1F0C00"/>
		<stop  offset="0.9857" style="stop-color:#080300"/>
		<stop  offset="1" style="stop-color:#000000"/>
	</linearGradient>
	
		<path style="fill:url(#SVGID_00000022560794692417961510000007987658510685620911_);stroke:#000000;stroke-width:0.5;stroke-miterlimit:10;" d="
		M83.1,24.4h0.2c0.9,0.4,3.1,1.9,6.5,4.5c2.5,1.2,3.7,1.9,3.8,2.1l-0.2,1.7l0.4,1.1c-0.9,2.2-2.4,3.2-4.4,3.2l-1.3,1.1V39l5.5,5.8
		V45l-0.6-0.2h-0.2V45c0.4,0,0.9,0.4,1.5,1.1l-0.2,0.2c-1.9,0-4.7-1.9-8.4-5.6h-0.2c-0.2,0-0.6,0.9-1.1,2.8l0.2,1.1v2.6l-0.2,0.2
		v0.2l-1.5-1.3l-0.4,0.4c-0.6-0.7-0.8-1.3-0.8-1.9c-0.6,0-0.8-0.4-0.8-1.1c-0.6,0-0.8-1.2-0.8-3.7c0-3.6,1.3-7.4,3.8-11.4l-1-1.1
		l0.2-1.3l-0.2-0.2l0.8-0.2L83.1,24.4z M87.7,33.2l-1.5,3.7c2.2-0.8,3.4-1.5,3.4-1.9l-1.7-1.7H87.7z"/>
	
		<linearGradient id="SVGID_00000170982729567301027880000006492601603544801682_" gradientUnits="userSpaceOnUse" x1="107.155" y1="47.0185" x2="100.7132" y2="24.5532">
		<stop  offset="2.513117e-02" style="stop-color:#000000"/>
		<stop  offset="0.2304" style="stop-color:#FF6315"/>
		<stop  offset="0.2574" style="stop-color:#FF7227"/>
		<stop  offset="0.3873" style="stop-color:#FFB97A"/>
		<stop  offset="0.4793" style="stop-color:#FFE6AE"/>
		<stop  offset="0.5241" style="stop-color:#FFF7C2"/>
		<stop  offset="0.5507" style="stop-color:#F9E0A7"/>
		<stop  offset="0.6062" style="stop-color:#EEB475"/>
		<stop  offset="0.6611" style="stop-color:#E5904B"/>
		<stop  offset="0.7141" style="stop-color:#DD742A"/>
		<stop  offset="0.7649" style="stop-color:#D86013"/>
		<stop  offset="0.8124" style="stop-color:#D55405"/>
		<stop  offset="0.8534" style="stop-color:#D45000"/>
		<stop  offset="0.8674" style="stop-color:#B84600"/>
		<stop  offset="0.9029" style="stop-color:#772D00"/>
		<stop  offset="0.9352" style="stop-color:#441A00"/>
		<stop  offset="0.9632" style="stop-color:#1F0C00"/>
		<stop  offset="0.9857" style="stop-color:#080300"/>
		<stop  offset="1" style="stop-color:#000000"/>
	</linearGradient>
	
		<path style="fill:url(#SVGID_00000170982729567301027880000006492601603544801682_);stroke:#000000;stroke-width:0.5;stroke-miterlimit:10;" d="
		M101.5,24.3h0.6c0,0.4,0.7,0.7,2.1,0.7l0.2,0.2l0.8-0.2h0.2c0.4,0,1.1,1.8,2.1,5.5c0.3,0,0.4,0.3,0.4,0.8h0.2
		c1.1-3.4,2.2-5.1,3.5-5.1l0.8-0.8l0.6,0.6v0.2c-1.2,3.1-2.6,8.3-4.1,15.6h-0.4v-0.6l-0.4,0.4v1.9l-0.2,0.2V44l-0.2-0.2h-0.4
		l0.2,1.1l-0.4,0.4l0.2,1.7h-0.2c-0.8-0.7-2-4.2-3.7-10.5l-1.2-4.5c-0.2,0-0.6,0.8-1.1,2.3l0.2,0.8c0,0.3-0.3,0.4-0.8,0.4l-0.2,0.2
		v0.2l0.4,0.4v1.1l0.2,1.7l-0.2,1.9c0,1.8,0.3,2.9,0.8,3.4c-0.4,0-0.6,0.4-0.6,1.3l-0.2,0.2l-0.6,1.5c-2,0-3.7-0.4-5-1.3l0.4-1.3
		l-0.4-3c0.4-4.6,0.9-6.8,1.5-6.8l0.2,0.2v-0.9h0.4v0.6c0,0.8,0.3,1.3,0.8,1.5l3.1-8.5l-0.6-2.6v-0.2c0-0.3,0.4-0.4,1.1-0.4V24.3z"
		/>
	
		<linearGradient id="SVGID_00000158742248105817081440000017307239564964445870_" gradientUnits="userSpaceOnUse" x1="122.9463" y1="47.9425" x2="116.447" y2="25.2767">
		<stop  offset="2.513117e-02" style="stop-color:#000000"/>
		<stop  offset="0.2304" style="stop-color:#FF6315"/>
		<stop  offset="0.2574" style="stop-color:#FF7227"/>
		<stop  offset="0.3873" style="stop-color:#FFB97A"/>
		<stop  offset="0.4793" style="stop-color:#FFE6AE"/>
		<stop  offset="0.5241" style="stop-color:#FFF7C2"/>
		<stop  offset="0.5507" style="stop-color:#F9E0A7"/>
		<stop  offset="0.6062" style="stop-color:#EEB475"/>
		<stop  offset="0.6611" style="stop-color:#E5904B"/>
		<stop  offset="0.7141" style="stop-color:#DD742A"/>
		<stop  offset="0.7649" style="stop-color:#D86013"/>
		<stop  offset="0.8124" style="stop-color:#D55405"/>
		<stop  offset="0.8534" style="stop-color:#D45000"/>
		<stop  offset="0.8674" style="stop-color:#B84600"/>
		<stop  offset="0.9029" style="stop-color:#772D00"/>
		<stop  offset="0.9352" style="stop-color:#441A00"/>
		<stop  offset="0.9632" style="stop-color:#1F0C00"/>
		<stop  offset="0.9857" style="stop-color:#080300"/>
		<stop  offset="1" style="stop-color:#000000"/>
	</linearGradient>
	
		<path style="fill:url(#SVGID_00000158742248105817081440000017307239564964445870_);stroke:#000000;stroke-width:0.5;stroke-miterlimit:10;" d="
		M120.4,24.1h0.6l0.4,0.9l0.8-0.2l1.5,0.2l0.6-0.2c1,1,2.1,5.2,3.4,12.5h-0.4v0.7l0.2,0.2v0.2h-0.4l-0.2-0.8h-0.2l-0.2,2.6
		c0.3,0.6,0.5,1.8,0.6,3.7h-0.2c-0.3,0-0.5-0.5-0.6-1.5h-0.2v0.6l0.4,1.9c-0.3,0-0.4,0.2-0.4,0.7l0.2,1.5h-0.2
		c-0.7-0.6-1.9-3.9-3.6-9.9c-1.8,0-2.8,1.2-2.9,3.7v0.6c0,1.6,0.3,2.7,0.8,3.2c-0.3,0-0.7,0.8-1,2.4l-0.6,0.6
		c-3.2-0.4-4.8-0.9-4.8-1.3l0.4-1.3l-0.4-3l1.1-7.3c0.3,0,0.4,0.2,0.4,0.6h0.2v-0.9h0.4v1.3l0.6,0.7l-0.2,0.2v0.4h0.2
		c1.9-5.1,3.1-8.1,3.6-8.8c-0.6-1.2-0.8-2.3-0.8-3.2C120.1,25,120.4,24.7,120.4,24.1z M120.6,31.9c0,0.9-0.2,1.6-0.6,2.1l0.2,1.1
		l-0.2,1.5h0.4c0.8,0,1.2-0.3,1.5-0.9v-0.6l-0.8-3.2H120.6z"/>
	
		<linearGradient id="SVGID_00000052798027856591031890000008296292994356501416_" gradientUnits="userSpaceOnUse" x1="136.1208" y1="46.8789" x2="129.8566" y2="25.0332">
		<stop  offset="2.513117e-02" style="stop-color:#000000"/>
		<stop  offset="0.2304" style="stop-color:#FF6315"/>
		<stop  offset="0.2574" style="stop-color:#FF7227"/>
		<stop  offset="0.3873" style="stop-color:#FFB97A"/>
		<stop  offset="0.4793" style="stop-color:#FFE6AE"/>
		<stop  offset="0.5241" style="stop-color:#FFF7C2"/>
		<stop  offset="0.5507" style="stop-color:#F9E0A7"/>
		<stop  offset="0.6062" style="stop-color:#EEB475"/>
		<stop  offset="0.6611" style="stop-color:#E5904B"/>
		<stop  offset="0.7141" style="stop-color:#DD742A"/>
		<stop  offset="0.7649" style="stop-color:#D86013"/>
		<stop  offset="0.8124" style="stop-color:#D55405"/>
		<stop  offset="0.8534" style="stop-color:#D45000"/>
		<stop  offset="0.8674" style="stop-color:#B84600"/>
		<stop  offset="0.9029" style="stop-color:#772D00"/>
		<stop  offset="0.9352" style="stop-color:#441A00"/>
		<stop  offset="0.9632" style="stop-color:#1F0C00"/>
		<stop  offset="0.9857" style="stop-color:#080300"/>
		<stop  offset="1" style="stop-color:#000000"/>
	</linearGradient>
	
		<path style="fill:url(#SVGID_00000052798027856591031890000008296292994356501416_);stroke:#000000;stroke-width:0.5;stroke-miterlimit:10;" d="
		M133.3,24.1c0,0.6,1.5,2.3,4.5,5.2V30c-0.8,2.2-1.4,3.4-1.8,3.4l-0.3-0.3l-1.8,5.9l0.3,1l-0.3,2.1v0.2h0.3l6-1l1.2,0.8
		c0,0.8-0.8,1.3-2.3,1.5c0,1.4-0.5,2.1-1.5,2.1l0.3,0.3v0.2l-7.3,1.3c-1.5-1.9-2.3-3.2-2.3-3.9c0.8-2,1.5-6.3,2-12.9h0.5v0.5h0.3
		C131.2,28.9,131.9,26.5,133.3,24.1z"/>
</g>
<path class="st7" d="M59.5,14.4H0v44.2h59.5V14.4z"/>
</svg>
